# Blender v2.83.0 OBJ File: ''
# www.blender.org
mtllib star.mtl
o Cube
v 0.096521 1.000000 -0.096521
v 0.085919 -1.000000 -0.085919
v 0.096521 1.000000 0.096521
v 0.101108 -0.101108 1.000000
v -0.096521 1.000000 -0.096521
v -0.085919 -1.000000 -0.085919
v -0.096521 1.000000 0.096521
v -0.101108 -0.101108 1.000000
v 0.101108 0.101108 1.000000
v -0.101108 0.101108 1.000000
v 0.092423 0.092423 -1.000000
v -0.092423 0.092423 -1.000000
v 1.000000 1.020820 1.000000
v -1.000000 1.020820 1.000000
v 0.096521 5.577692 0.096521
v -0.096521 5.577692 0.096521
v 1.000000 1.042181 -1.000000
v 1.000000 1.042181 1.000000
v 0.096521 5.519261 -0.096521
v 0.096521 5.519261 0.096521
v -1.000000 1.029183 -1.000000
v 1.000000 1.029183 -1.000000
v -0.096521 5.538241 -0.096521
v 0.096521 5.538241 -0.096521
v -1.000000 1.011555 1.000000
v -1.000000 1.011555 -1.000000
v -0.096521 5.600393 0.096521
v -0.096521 5.600393 -0.096521
v 0.096521 1.357222 0.096521
v -0.096521 1.357222 0.096521
v 0.096521 1.357222 -0.096521
v -0.096521 1.357222 -0.096521
v 0.096521 5.589186 0.096521
v -0.096521 5.589186 0.096521
v 0.096521 5.589186 -0.096521
v -0.096521 5.589186 -0.096521
v -0.085919 -1.000000 0.085919
v -1.000000 1.000000 1.000000
v 1.000000 1.000000 1.000000
v 0.085919 -1.000000 0.085919
v -0.101108 -0.101108 6.897319
v -0.101108 0.101108 7.145607
v 0.101108 0.101108 6.996953
v 0.101108 -0.101108 6.748665
v 1.000000 1.000000 1.036967
v 1.000000 -1.000000 1.036967
v 0.101108 0.101108 6.922754
v 0.101108 -0.101108 6.922754
v -1.000000 -1.000000 1.018322
v 1.000000 -1.000000 1.018322
v -0.101108 -0.101108 6.905149
v 0.101108 -0.101108 6.905149
v 1.000000 1.000000 0.857043
v -1.000000 1.000000 0.857043
v 0.101108 0.101108 6.949276
v -0.101108 0.101108 6.949276
v -1.000000 -1.000000 1.011216
v -1.000000 1.000000 1.011216
v -0.101108 -0.101108 6.916106
v -0.101108 0.101108 6.916106
v -0.092423 -0.092423 -1.000000
v -1.000000 -1.000000 1.000000
v 0.092423 -0.092423 -1.000000
v 1.000000 -1.000000 1.000000
v -0.085919 -5.615275 -0.085919
v -0.085919 -5.615275 0.085919
v 0.085919 -5.615275 -0.085919
v 0.085919 -5.615275 0.085919
v 1.000000 -1.045634 -1.000000
v -1.000000 -1.045634 -1.000000
v 0.085919 -5.570522 -0.085919
v -0.085919 -5.570522 -0.085919
v -1.000000 -1.035170 -1.000000
v -1.000000 -1.035170 1.000000
v -0.085919 -5.517021 -0.085919
v -0.085919 -5.517021 0.085919
v 1.000000 -1.058671 1.000000
v 1.000000 -1.058671 -1.000000
v 0.085919 -5.528384 0.085919
v 0.085919 -5.528384 -0.085919
v -1.000000 -1.024269 1.000000
v 1.000000 -1.024269 1.000000
v -0.085919 -5.394857 0.085919
v 0.085919 -5.394857 0.085919
v 1.000000 -1.000000 -1.000000
v -1.000000 -1.000000 -1.000000
v 1.000000 1.000000 -1.000000
v -1.000000 1.000000 -1.000000
v 0.092423 -0.092423 -6.487815
v -0.092423 -0.092423 -6.487815
v 0.092423 0.092423 -6.487815
v -0.092423 0.092423 -6.487815
v -1.000000 1.000000 -1.030111
v -1.000000 -1.000000 -1.030111
v -0.092423 0.092423 -6.450863
v -0.092423 -0.092423 -6.450863
v 1.000000 -1.000000 -1.021531
v -1.000000 -1.000000 -1.021531
v 0.092423 -0.092423 -6.440833
v -0.092423 -0.092423 -6.440833
v -1.000000 1.000000 -1.179491
v 1.000000 1.000000 -1.179491
v -0.092423 0.092423 -6.413765
v 0.092423 0.092423 -6.413765
v 1.000000 1.000000 -1.037900
v 1.000000 -1.000000 -1.037900
v 0.092423 0.092423 -6.433891
v 0.092423 -0.092423 -6.433891
vt 0.762065 0.612935
vt 0.762065 0.637065
vt 0.762065 0.637065
vt 0.762065 0.612935
vt 0.487361 0.887638
vt 0.487361 0.862361
vt 0.487361 0.862361
vt 0.487361 0.887638
vt 0.375000 0.000000
vt 0.625000 0.000000
vt 0.625000 0.250000
vt 0.375000 0.250000
vt 0.260740 0.635740
vt 0.239260 0.635740
vt 0.239260 0.635740
vt 0.260740 0.635740
vt 0.375000 0.500000
vt 0.625000 0.500000
vt 0.625000 0.750000
vt 0.375000 0.750000
vt 0.488447 0.363447
vt 0.511553 0.363447
vt 0.511553 0.363447
vt 0.488447 0.363447
vt 0.737935 0.637065
vt 0.737935 0.637065
vt 0.625000 0.750000
vt 0.625000 0.750000
vt 0.737935 0.637065
vt 0.762065 0.612935
vt 0.762065 0.637065
vt 0.625000 0.250000
vt 0.625000 0.500000
vt 0.762065 0.637065
vt 0.875000 0.750000
vt 0.625000 1.000000
vt 0.625000 1.000000
vt 0.875000 0.750000
vt 0.737935 0.612935
vt 0.625000 0.500000
vt 0.737935 0.612935
vt 0.762065 0.612935
vt 0.737935 0.612935
vt 0.875000 0.500000
vt 0.875000 0.500000
vt 0.875000 0.500000
vt 0.875000 0.750000
vt 0.625000 0.000000
vt 0.625000 0.250000
vt 0.762065 0.637065
vt 0.762065 0.612935
vt 0.737935 0.637065
vt 0.737935 0.612935
vt 0.737935 0.612935
vt 0.737935 0.637065
vt 0.375000 0.000000
vt 0.625000 0.000000
vt 0.512639 0.862361
vt 0.487361 0.862361
vt 0.512639 0.862361
vt 0.625000 0.750000
vt 0.512639 0.862361
vt 0.487361 0.887638
vt 0.487361 0.862361
vt 0.512639 0.862361
vt 0.512639 0.887639
vt 0.512639 0.887639
vt 0.375000 0.750000
vt 0.625000 0.750000
vt 0.375000 1.000000
vt 0.375000 0.750000
vt 0.125000 0.750000
vt 0.125000 0.750000
vt 0.375000 1.000000
vt 0.512639 0.887639
vt 0.625000 1.000000
vt 0.487361 0.887638
vt 0.512639 0.887639
vt 0.625000 1.000000
vt 0.375000 1.000000
vt 0.125000 0.500000
vt 0.239260 0.614260
vt 0.239260 0.614260
vt 0.125000 0.500000
vt 0.375000 0.500000
vt 0.375000 0.250000
vt 0.125000 0.750000
vt 0.375000 0.750000
vt 0.260740 0.614260
vt 0.375000 0.500000
vt 0.260740 0.614260
vt 0.239260 0.614260
vt 0.260740 0.614260
vt 0.260740 0.614260
vt 0.239260 0.614260
vt 0.125000 0.500000
vt 0.239260 0.635740
vt 0.125000 0.750000
vt 0.375000 0.250000
vt 0.375000 0.000000
vt 0.260740 0.635740
vt 0.375000 0.750000
vt 0.239260 0.635740
vt 0.260740 0.635740
vt 0.488447 0.363447
vt 0.375000 0.250000
vt 0.511553 0.386553
vt 0.625000 0.500000
vt 0.511553 0.386553
vt 0.625000 0.250000
vt 0.375000 0.250000
vt 0.511553 0.386553
vt 0.625000 0.500000
vt 0.511553 0.386553
vt 0.488447 0.386553
vt 0.488447 0.386553
vt 0.511553 0.363447
vt 0.488447 0.363447
vt 0.488447 0.386553
vt 0.375000 0.500000
vt 0.511553 0.363447
vt 0.625000 0.250000
vt 0.488447 0.386553
vt 0.375000 0.500000
vn -1.0000 0.0000 0.0000
vn 0.0000 -1.0000 0.0000
vn 0.0000 0.0000 1.0000
vn 1.0000 0.0000 0.0000
vn 0.7071 0.0000 -0.7071
vn -0.7071 0.0000 0.7071
vn 0.0000 0.0000 -1.0000
vn 0.0000 0.1945 0.9809
vn -0.7071 0.0000 -0.7071
vn 0.9802 0.1978 0.0000
vn 0.0000 0.1965 -0.9805
vn 0.7071 0.0000 0.7071
vn -0.9812 0.1932 0.0000
vn 0.0000 1.0000 0.0000
vn 0.7071 -0.7071 0.0000
vn 0.4211 -0.7033 0.5728
vn 0.9885 0.0000 0.1510
vn -0.7071 0.7071 0.0000
vn -0.7071 -0.7071 0.0000
vn 0.0000 -0.9885 0.1509
vn 0.7071 0.7071 0.0000
vn 0.0000 0.9893 0.1460
vn -0.9886 0.0000 0.1505
vn 0.0000 -0.1980 -0.9802
vn -0.9798 -0.1998 0.0000
vn 0.9797 -0.2004 0.0000
vn 0.0000 -0.2047 0.9788
vn -0.9863 0.0000 -0.1651
vn 0.0000 -0.9863 -0.1652
vn 0.0000 0.9853 -0.1708
vn 0.9861 0.0000 -0.1659
usemtl Material
s off
f 5/1/1 7/2/1 30/3/1 32/4/1
f 8/5/2 4/6/2 44/7/2 41/8/2
f 62/9/1 38/10/1 88/11/1 86/12/1
f 40/13/3 37/14/3 66/15/3 68/16/3
f 85/17/4 87/18/4 39/19/4 64/20/4
f 61/21/1 12/22/1 92/23/1 90/24/1
f 39/19/5 3/25/5 15/26/5 13/27/5
f 3/25/6 39/19/6 18/28/6 20/29/6
f 7/2/4 5/1/4 28/30/4 27/31/4
f 87/18/7 88/11/7 21/32/7 22/33/7
f 15/26/8 16/34/8 14/35/8 13/27/8
f 3/25/7 7/2/7 16/34/7 15/26/7
f 38/36/3 39/19/3 13/27/3 14/37/3
f 7/2/9 38/38/9 14/35/9 16/34/9
f 19/39/10 20/29/10 18/28/10 17/40/10
f 1/41/1 3/25/1 20/29/1 19/39/1
f 39/19/4 87/18/4 17/40/4 18/28/4
f 87/18/9 1/41/9 19/39/9 17/40/9
f 23/42/11 24/43/11 22/33/11 21/44/11
f 88/45/6 5/1/6 23/42/6 21/44/6
f 5/1/3 1/41/3 24/43/3 23/42/3
f 1/41/12 87/18/12 22/33/12 24/43/12
f 27/31/13 28/30/13 26/46/13 25/47/13
f 5/1/5 88/45/5 26/46/5 28/30/5
f 38/38/12 7/2/12 27/31/12 25/47/12
f 88/11/1 38/10/1 25/48/1 26/49/1
f 32/4/1 30/3/1 34/50/1 36/51/1
f 7/2/3 3/25/3 29/52/3 30/3/3
f 1/41/7 5/1/7 32/4/7 31/53/7
f 3/25/4 1/41/4 31/53/4 29/52/4
f 35/54/14 36/51/14 34/50/14 33/55/14
f 30/3/3 29/52/3 33/55/3 34/50/3
f 31/53/7 32/4/7 36/51/7 35/54/7
f 29/52/4 31/53/4 35/54/4 33/55/4
f 38/10/1 62/9/1 57/56/1 58/57/1
f 9/58/1 4/6/1 48/59/1 47/60/1
f 9/58/15 39/19/15 53/61/15 55/62/15
f 4/6/14 8/5/14 51/63/14 52/64/14
f 44/7/16 43/65/16 42/66/16 41/8/16
f 4/6/4 9/58/4 43/65/4 44/7/4
f 9/58/14 10/67/14 42/66/14 43/65/14
f 10/67/1 8/5/1 41/8/1 42/66/1
f 47/60/17 48/59/17 46/68/17 45/69/17
f 39/19/18 9/58/18 47/60/18 45/69/18
f 64/20/4 39/19/4 45/69/4 46/68/4
f 4/6/19 64/20/19 46/68/19 48/59/19
f 52/64/20 51/63/20 49/70/20 50/71/20
f 62/72/2 64/20/2 50/71/2 49/73/2
f 8/5/18 62/74/18 49/70/18 51/63/18
f 64/20/21 4/6/21 52/64/21 50/71/21
f 56/75/22 55/62/22 53/61/22 54/76/22
f 39/19/2 38/36/2 54/76/2 53/61/2
f 10/67/2 9/58/2 55/62/2 56/75/2
f 38/36/19 10/67/19 56/75/19 54/76/19
f 59/77/23 60/78/23 58/79/23 57/80/23
f 62/74/15 8/5/15 59/77/15 57/80/15
f 8/5/4 10/67/4 60/78/4 59/77/4
f 10/67/21 38/36/21 58/79/21 60/78/21
f 86/81/5 6/82/5 75/83/5 73/84/5
f 86/12/7 85/17/7 69/85/7 70/86/7
f 64/20/3 62/72/3 81/87/3 82/88/3
f 2/89/9 85/17/9 78/90/9 80/91/9
f 65/92/2 67/93/2 68/16/2 66/15/2
f 37/14/1 6/82/1 65/92/1 66/15/1
f 2/89/4 40/13/4 68/16/4 67/93/4
f 6/82/7 2/89/7 67/93/7 65/92/7
f 71/94/24 72/95/24 70/96/24 69/85/24
f 85/17/12 2/89/12 71/94/12 69/85/12
f 6/82/6 86/81/6 70/96/6 72/95/6
f 2/89/3 6/82/3 72/95/3 71/94/3
f 75/83/25 76/97/25 74/98/25 73/84/25
f 6/82/4 37/14/4 76/97/4 75/83/4
f 62/9/1 86/12/1 73/99/1 74/100/1
f 37/14/12 62/72/12 74/98/12 76/97/12
f 79/101/26 80/91/26 78/90/26 77/102/26
f 64/20/6 40/13/6 79/101/6 77/102/6
f 85/17/4 64/20/4 77/102/4 78/90/4
f 40/13/1 2/89/1 80/91/1 79/101/1
f 83/103/27 84/104/27 82/88/27 81/87/27
f 37/14/7 40/13/7 84/104/7 83/103/7
f 40/13/5 64/20/5 82/88/5 84/104/5
f 62/72/9 37/14/9 83/103/9 81/87/9
f 86/12/18 61/21/18 100/105/18 98/106/18
f 11/107/18 87/18/18 105/108/18 107/109/18
f 86/12/1 88/11/1 93/110/1 94/111/1
f 87/18/15 11/107/15 104/112/15 102/113/15
f 90/24/7 92/23/7 91/114/7 89/115/7
f 63/116/2 61/21/2 90/24/2 89/115/2
f 12/22/14 11/107/14 91/114/14 92/23/14
f 11/107/4 63/116/4 89/115/4 91/114/4
f 95/117/28 96/118/28 94/111/28 93/110/28
f 61/21/15 86/12/15 94/111/15 96/118/15
f 12/22/4 61/21/4 96/118/4 95/117/4
f 88/11/21 12/22/21 95/117/21 93/110/21
f 100/105/29 99/119/29 97/120/29 98/106/29
f 85/17/2 86/12/2 98/106/2 97/120/2
f 61/21/14 63/116/14 99/119/14 100/105/14
f 63/116/21 85/17/21 97/120/21 99/119/21
f 104/112/30 103/121/30 101/122/30 102/113/30
f 88/11/14 87/18/14 102/113/14 101/122/14
f 12/22/19 88/11/19 101/122/19 103/121/19
f 11/107/2 12/22/2 103/121/2 104/112/2
f 108/123/31 107/109/31 105/108/31 106/124/31
f 85/17/19 63/116/19 108/123/19 106/124/19
f 87/18/4 85/17/4 106/124/4 105/108/4
f 63/116/1 11/107/1 107/109/1 108/123/1
o Cube.001
v 0.096521 1.188493 -0.774578
v 0.085919 -0.219956 0.645416
v 0.096521 1.324827 -0.637911
v 0.101108 1.183355 0.779375
v -0.096521 1.188493 -0.774578
v -0.085919 -0.219956 0.645416
v -0.096521 1.324827 -0.637911
v -0.101108 1.183355 0.779375
v 0.101108 1.326517 0.636561
v -0.101108 1.326517 0.636561
v 0.092423 -0.092120 -0.773241
v -0.092423 -0.092120 -0.773241
v 1.000000 1.977644 -0.012980
v -1.000000 1.977644 -0.012980
v 0.096521 4.565688 -3.870879
v -0.096521 4.565688 -3.870879
v 1.000000 0.580278 -1.444002
v 1.000000 1.992767 -0.028066
v 0.096521 4.387987 -3.966280
v 0.096521 4.524321 -3.829613
v -1.000000 0.571077 -1.434823
v 1.000000 0.571077 -1.434823
v -0.096521 4.401424 -3.979684
v 0.096521 4.401424 -3.979684
v -1.000000 1.971085 -0.006437
v -1.000000 0.558597 -1.422373
v -0.096521 4.581759 -3.886912
v -0.096521 4.445425 -4.023579
v 0.096521 1.577729 -0.890197
v -0.096521 1.577729 -0.890197
v 0.096521 1.441395 -1.026863
v -0.096521 1.441395 -1.026863
v 0.096521 4.573825 -3.878997
v -0.096521 4.573825 -3.878997
v 0.096521 4.437491 -4.015664
v -0.096521 4.437491 -4.015664
v -0.085919 -0.098597 0.767072
v -1.000000 1.962904 0.001724
v 1.000000 1.962904 0.001724
v 0.085919 -0.098597 0.767072
v -0.101108 5.348302 4.954490
v -0.101108 5.666817 4.987456
v 0.101108 5.561831 4.882214
v 0.101108 5.243316 4.849248
v 1.000000 1.989012 0.027896
v 1.000000 0.573076 1.440384
v 0.101108 5.509429 4.829683
v 0.101108 5.366266 4.972498
v -1.000000 0.559908 1.427184
v 1.000000 0.559908 1.427184
v -0.101108 5.353832 4.960033
v 0.101108 5.353832 4.960033
v 1.000000 1.861942 -0.099485
v -1.000000 1.861942 -0.099485
v 0.101108 5.528159 4.848460
v -0.101108 5.528159 4.848460
v -1.000000 0.554889 1.422153
v -1.000000 1.970825 0.009664
v -0.101108 5.361570 4.967791
v -0.101108 5.504733 4.824976
v -0.092423 -0.222985 -0.642695
v -1.000000 0.546968 1.414212
v 0.092423 -0.222985 -0.642695
v 1.000000 0.546968 1.414212
v -0.085919 -3.487425 3.904928
v -0.085919 -3.366065 4.026584
v 0.085919 -3.487425 3.904928
v 0.085919 -3.366065 4.026584
v 1.000000 -0.897828 0.030505
v -1.000000 -0.897828 0.030505
v 0.085919 -3.455741 3.873321
v -0.085919 -3.455741 3.873321
v -1.000000 -0.890420 0.023115
v -1.000000 0.522068 1.439051
v -0.085919 -3.417864 3.835536
v -0.085919 -3.296504 3.957192
v 1.000000 0.505430 1.455649
v 1.000000 -0.907058 0.039712
v 0.085919 -3.304549 3.965217
v 0.085919 -3.425909 3.843561
v -1.000000 0.529786 1.431352
v 1.000000 0.529786 1.431352
v -0.085919 -3.210016 3.870914
v 0.085919 -3.210016 3.870914
v 1.000000 -0.865521 -0.001724
v -1.000000 -0.865521 -0.001724
v 1.000000 0.550416 -1.414212
v -1.000000 0.550416 -1.414212
v 0.092423 -4.098722 -4.527894
v -0.092423 -4.098722 -4.527894
v 0.092423 -3.967857 -4.658441
v -0.092423 -3.967857 -4.658441
v -1.000000 0.529150 -1.435530
v -1.000000 -0.886787 -0.023042
v -0.092423 -3.941761 -4.632280
v -0.092423 -4.072626 -4.501733
v 1.000000 -0.880727 -0.016967
v -1.000000 -0.880727 -0.016967
v 0.092423 -4.065542 -4.494632
v -0.092423 -4.065542 -4.494632
v -1.000000 0.423651 -1.541286
v 1.000000 0.423651 -1.541286
v -0.092423 -3.915560 -4.606016
v 0.092423 -3.915560 -4.606016
v 1.000000 0.523649 -1.441045
v 1.000000 -0.892287 -0.028556
v 0.092423 -3.929774 -4.620264
v 0.092423 -4.060639 -4.489717
vt 0.762065 0.612935
vt 0.762065 0.637065
vt 0.762065 0.637065
vt 0.762065 0.612935
vt 0.487361 0.887638
vt 0.487361 0.862361
vt 0.487361 0.862361
vt 0.487361 0.887638
vt 0.375000 0.000000
vt 0.625000 0.000000
vt 0.625000 0.250000
vt 0.375000 0.250000
vt 0.260740 0.635740
vt 0.239260 0.635740
vt 0.239260 0.635740
vt 0.260740 0.635740
vt 0.375000 0.500000
vt 0.625000 0.500000
vt 0.625000 0.750000
vt 0.375000 0.750000
vt 0.488447 0.363447
vt 0.511553 0.363447
vt 0.511553 0.363447
vt 0.488447 0.363447
vt 0.737935 0.637065
vt 0.737935 0.637065
vt 0.625000 0.750000
vt 0.625000 0.750000
vt 0.737935 0.637065
vt 0.762065 0.612935
vt 0.762065 0.637065
vt 0.625000 0.250000
vt 0.625000 0.500000
vt 0.762065 0.637065
vt 0.875000 0.750000
vt 0.625000 1.000000
vt 0.625000 1.000000
vt 0.875000 0.750000
vt 0.737935 0.612935
vt 0.625000 0.500000
vt 0.737935 0.612935
vt 0.762065 0.612935
vt 0.737935 0.612935
vt 0.875000 0.500000
vt 0.875000 0.500000
vt 0.875000 0.500000
vt 0.875000 0.750000
vt 0.625000 0.000000
vt 0.625000 0.250000
vt 0.762065 0.637065
vt 0.762065 0.612935
vt 0.737935 0.637065
vt 0.737935 0.612935
vt 0.737935 0.612935
vt 0.737935 0.637065
vt 0.375000 0.000000
vt 0.625000 0.000000
vt 0.512639 0.862361
vt 0.487361 0.862361
vt 0.512639 0.862361
vt 0.625000 0.750000
vt 0.512639 0.862361
vt 0.487361 0.887638
vt 0.487361 0.862361
vt 0.512639 0.862361
vt 0.512639 0.887639
vt 0.512639 0.887639
vt 0.375000 0.750000
vt 0.625000 0.750000
vt 0.375000 1.000000
vt 0.375000 0.750000
vt 0.125000 0.750000
vt 0.125000 0.750000
vt 0.375000 1.000000
vt 0.512639 0.887639
vt 0.625000 1.000000
vt 0.487361 0.887638
vt 0.512639 0.887639
vt 0.625000 1.000000
vt 0.375000 1.000000
vt 0.125000 0.500000
vt 0.239260 0.614260
vt 0.239260 0.614260
vt 0.125000 0.500000
vt 0.375000 0.500000
vt 0.375000 0.250000
vt 0.125000 0.750000
vt 0.375000 0.750000
vt 0.260740 0.614260
vt 0.375000 0.500000
vt 0.260740 0.614260
vt 0.239260 0.614260
vt 0.260740 0.614260
vt 0.260740 0.614260
vt 0.239260 0.614260
vt 0.125000 0.500000
vt 0.239260 0.635740
vt 0.125000 0.750000
vt 0.375000 0.250000
vt 0.375000 0.000000
vt 0.260740 0.635740
vt 0.375000 0.750000
vt 0.239260 0.635740
vt 0.260740 0.635740
vt 0.488447 0.363447
vt 0.375000 0.250000
vt 0.511553 0.386553
vt 0.625000 0.500000
vt 0.511553 0.386553
vt 0.625000 0.250000
vt 0.375000 0.250000
vt 0.511553 0.386553
vt 0.625000 0.500000
vt 0.511553 0.386553
vt 0.488447 0.386553
vt 0.488447 0.386553
vt 0.511553 0.363447
vt 0.488447 0.363447
vt 0.488447 0.386553
vt 0.375000 0.500000
vt 0.511553 0.363447
vt 0.625000 0.250000
vt 0.488447 0.386553
vt 0.375000 0.500000
vn -1.0000 0.0000 0.0000
vn 0.0000 -0.7080 0.7062
vn 0.0000 0.7062 0.7080
vn 1.0000 0.0000 0.0000
vn 0.7071 -0.4994 -0.5006
vn -0.7071 0.4994 0.5006
vn 0.0000 -0.7062 -0.7080
vn 0.0000 0.8304 0.5571
vn -0.7071 -0.4994 -0.5006
vn 0.9802 0.1400 -0.1397
vn 0.0000 -0.5534 -0.8329
vn 0.7071 0.4994 0.5006
vn -0.9812 0.1368 -0.1364
vn 0.0000 0.7080 -0.7062
vn 0.7071 -0.5006 0.4994
vn 0.4211 -0.0934 0.9022
vn 0.9885 0.1066 0.1069
vn -0.7071 0.5006 -0.4994
vn -0.7071 -0.5006 0.4994
vn 0.0000 -0.5933 0.8050
vn 0.7071 0.5006 -0.4994
vn 0.0000 0.8035 -0.5953
vn -0.9886 0.1063 0.1065
vn 0.0000 -0.8324 -0.5541
vn -0.9798 -0.1415 0.1411
vn 0.9797 -0.1418 0.1415
vn 0.0000 0.5464 0.8376
vn -0.9863 -0.1166 -0.1169
vn 0.0000 -0.8149 0.5796
vn 0.0000 0.5769 -0.8168
vn 0.9861 -0.1171 -0.1174
usemtl Material.001
s off
f 113/125/32 115/126/32 138/127/32 140/128/32
f 116/129/33 112/130/33 152/131/33 149/132/33
f 170/133/32 146/134/32 196/135/32 194/136/32
f 148/137/34 145/138/34 174/139/34 176/140/34
f 193/141/35 195/142/35 147/143/35 172/144/35
f 169/145/32 120/146/32 200/147/32 198/148/32
f 147/143/36 111/149/36 123/150/36 121/151/36
f 111/149/37 147/143/37 126/152/37 128/153/37
f 115/126/35 113/125/35 136/154/35 135/155/35
f 195/142/38 196/135/38 129/156/38 130/157/38
f 123/150/39 124/158/39 122/159/39 121/151/39
f 111/149/38 115/126/38 124/158/38 123/150/38
f 146/160/34 147/143/34 121/151/34 122/161/34
f 115/126/40 146/162/40 122/159/40 124/158/40
f 127/163/41 128/153/41 126/152/41 125/164/41
f 109/165/32 111/149/32 128/153/32 127/163/32
f 147/143/35 195/142/35 125/164/35 126/152/35
f 195/142/40 109/165/40 127/163/40 125/164/40
f 131/166/42 132/167/42 130/157/42 129/168/42
f 196/169/37 113/125/37 131/166/37 129/168/37
f 113/125/34 109/165/34 132/167/34 131/166/34
f 109/165/43 195/142/43 130/157/43 132/167/43
f 135/155/44 136/154/44 134/170/44 133/171/44
f 113/125/36 196/169/36 134/170/36 136/154/36
f 146/162/43 115/126/43 135/155/43 133/171/43
f 196/135/32 146/134/32 133/172/32 134/173/32
f 140/128/32 138/127/32 142/174/32 144/175/32
f 115/126/34 111/149/34 137/176/34 138/127/34
f 109/165/38 113/125/38 140/128/38 139/177/38
f 111/149/35 109/165/35 139/177/35 137/176/35
f 143/178/45 144/175/45 142/174/45 141/179/45
f 138/127/34 137/176/34 141/179/34 142/174/34
f 139/177/38 140/128/38 144/175/38 143/178/38
f 137/176/35 139/177/35 143/178/35 141/179/35
f 146/134/32 170/133/32 165/180/32 166/181/32
f 117/182/32 112/130/32 156/183/32 155/184/32
f 117/182/46 147/143/46 161/185/46 163/186/46
f 112/130/45 116/129/45 159/187/45 160/188/45
f 152/131/47 151/189/47 150/190/47 149/132/47
f 112/130/35 117/182/35 151/189/35 152/131/35
f 117/182/45 118/191/45 150/190/45 151/189/45
f 118/191/32 116/129/32 149/132/32 150/190/32
f 155/184/48 156/183/48 154/192/48 153/193/48
f 147/143/49 117/182/49 155/184/49 153/193/49
f 172/144/35 147/143/35 153/193/35 154/192/35
f 112/130/50 172/144/50 154/192/50 156/183/50
f 160/188/51 159/187/51 157/194/51 158/195/51
f 170/196/33 172/144/33 158/195/33 157/197/33
f 116/129/49 170/198/49 157/194/49 159/187/49
f 172/144/52 112/130/52 160/188/52 158/195/52
f 164/199/53 163/186/53 161/185/53 162/200/53
f 147/143/33 146/160/33 162/200/33 161/185/33
f 118/191/33 117/182/33 163/186/33 164/199/33
f 146/160/50 118/191/50 164/199/50 162/200/50
f 167/201/54 168/202/54 166/203/54 165/204/54
f 170/198/46 116/129/46 167/201/46 165/204/46
f 116/129/35 118/191/35 168/202/35 167/201/35
f 118/191/52 146/160/52 166/203/52 168/202/52
f 194/205/36 114/206/36 183/207/36 181/208/36
f 194/136/38 193/141/38 177/209/38 178/210/38
f 172/144/34 170/196/34 189/211/34 190/212/34
f 110/213/40 193/141/40 186/214/40 188/215/40
f 173/216/33 175/217/33 176/140/33 174/139/33
f 145/138/32 114/206/32 173/216/32 174/139/32
f 110/213/35 148/137/35 176/140/35 175/217/35
f 114/206/38 110/213/38 175/217/38 173/216/38
f 179/218/55 180/219/55 178/220/55 177/209/55
f 193/141/43 110/213/43 179/218/43 177/209/43
f 114/206/37 194/205/37 178/220/37 180/219/37
f 110/213/34 114/206/34 180/219/34 179/218/34
f 183/207/56 184/221/56 182/222/56 181/208/56
f 114/206/35 145/138/35 184/221/35 183/207/35
f 170/133/32 194/136/32 181/223/32 182/224/32
f 145/138/43 170/196/43 182/222/43 184/221/43
f 187/225/57 188/215/57 186/214/57 185/226/57
f 172/144/37 148/137/37 187/225/37 185/226/37
f 193/141/35 172/144/35 185/226/35 186/214/35
f 148/137/32 110/213/32 188/215/32 187/225/32
f 191/227/58 192/228/58 190/212/58 189/211/58
f 145/138/38 148/137/38 192/228/38 191/227/38
f 148/137/36 172/144/36 190/212/36 192/228/36
f 170/196/40 145/138/40 191/227/40 189/211/40
f 194/136/49 169/145/49 208/229/49 206/230/49
f 119/231/49 195/142/49 213/232/49 215/233/49
f 194/136/32 196/135/32 201/234/32 202/235/32
f 195/142/46 119/231/46 212/236/46 210/237/46
f 198/148/38 200/147/38 199/238/38 197/239/38
f 171/240/33 169/145/33 198/148/33 197/239/33
f 120/146/45 119/231/45 199/238/45 200/147/45
f 119/231/35 171/240/35 197/239/35 199/238/35
f 203/241/59 204/242/59 202/235/59 201/234/59
f 169/145/46 194/136/46 202/235/46 204/242/46
f 120/146/35 169/145/35 204/242/35 203/241/35
f 196/135/52 120/146/52 203/241/52 201/234/52
f 208/229/60 207/243/60 205/244/60 206/230/60
f 193/141/33 194/136/33 206/230/33 205/244/33
f 169/145/45 171/240/45 207/243/45 208/229/45
f 171/240/52 193/141/52 205/244/52 207/243/52
f 212/236/61 211/245/61 209/246/61 210/237/61
f 196/135/45 195/142/45 210/237/45 209/246/45
f 120/146/50 196/135/50 209/246/50 211/245/50
f 119/231/33 120/146/33 211/245/33 212/236/33
f 216/247/62 215/233/62 213/232/62 214/248/62
f 193/141/50 171/240/50 216/247/50 214/248/50
f 195/142/35 193/141/35 214/248/35 213/232/35
f 171/240/32 119/231/32 215/233/32 216/247/32
